<?xml version="1.0" encoding="UTF-8" standalone="no"?>
<!DOCTYPE svg PUBLIC "-//W3C//DTD SVG 1.1//EN"
 "http://www.w3.org/Graphics/SVG/1.1/DTD/svg11.dtd">
<!-- Generated by graphviz version 2.40.1 (0)
 -->
<!-- Title: %3 Pages: 1 -->
<svg width="695pt" height="224pt"
 viewBox="0.00 0.00 695.00 224.00" xmlns="http://www.w3.org/2000/svg" xmlns:xlink="http://www.w3.org/1999/xlink">
<g id="graph0" class="graph" transform="scale(1 1) rotate(0) translate(4 220)">
<title>%3</title>
<polygon fill="transparent" stroke="transparent" points="-4,4 -4,-220 691,-220 691,4 -4,4"/>
<!-- Chairs -->
<g id="node1" class="node">
<title>Chairs</title>
<path fill="#356abf" stroke="#ffffff" stroke-width="3" d="M189.5,-216C189.5,-216 133.5,-216 133.5,-216 127.5,-216 121.5,-210 121.5,-204 121.5,-204 121.5,-180 121.5,-180 121.5,-174 127.5,-168 133.5,-168 133.5,-168 189.5,-168 189.5,-168 195.5,-168 201.5,-174 201.5,-180 201.5,-180 201.5,-204 201.5,-204 201.5,-210 195.5,-216 189.5,-216"/>
<text text-anchor="middle" x="161.5" y="-187.6" font-family="Liberation Sans" font-size="18.00" fill="#ffffff">Chairs</text>
</g>
<!-- No Legs -->
<g id="node2" class="node">
<title>No Legs</title>
<path fill="#356abf" stroke="#ffffff" stroke-width="3" d="M83,-132C83,-132 12,-132 12,-132 6,-132 0,-126 0,-120 0,-120 0,-96 0,-96 0,-90 6,-84 12,-84 12,-84 83,-84 83,-84 89,-84 95,-90 95,-96 95,-96 95,-120 95,-120 95,-126 89,-132 83,-132"/>
<text text-anchor="middle" x="47.5" y="-103.6" font-family="Liberation Sans" font-size="18.00" fill="#ffffff">No Legs</text>
</g>
<!-- Chairs&#45;&gt;No Legs -->
<g id="edge1" class="edge">
<title>Chairs&#45;&gt;No Legs</title>
<path fill="none" stroke="#356abf" stroke-width="3" d="M128.8322,-167.929C113.5679,-156.6816 95.4375,-143.3224 80.1726,-132.0745"/>
</g>
<!-- One Leg -->
<g id="node3" class="node">
<title>One Leg</title>
<path fill="#356abf" stroke="#ffffff" stroke-width="3" d="M198,-132C198,-132 125,-132 125,-132 119,-132 113,-126 113,-120 113,-120 113,-96 113,-96 113,-90 119,-84 125,-84 125,-84 198,-84 198,-84 204,-84 210,-90 210,-96 210,-96 210,-120 210,-120 210,-126 204,-132 198,-132"/>
<text text-anchor="middle" x="161.5" y="-103.6" font-family="Liberation Sans" font-size="18.00" fill="#ffffff">One Leg</text>
</g>
<!-- Chairs&#45;&gt;One Leg -->
<g id="edge2" class="edge">
<title>Chairs&#45;&gt;One Leg</title>
<path fill="none" stroke="#356abf" stroke-width="3" d="M161.5,-167.7037C161.5,-156.5593 161.5,-143.3794 161.5,-132.2417"/>
</g>
<!-- More Legs -->
<g id="node4" class="node">
<title>More Legs</title>
<path fill="#356abf" stroke="#ffffff" stroke-width="3" d="M443,-132C443,-132 354,-132 354,-132 348,-132 342,-126 342,-120 342,-120 342,-96 342,-96 342,-90 348,-84 354,-84 354,-84 443,-84 443,-84 449,-84 455,-90 455,-96 455,-96 455,-120 455,-120 455,-126 449,-132 443,-132"/>
<text text-anchor="middle" x="398.5" y="-103.6" font-family="Liberation Sans" font-size="18.00" fill="#ffffff">More Legs</text>
</g>
<!-- Chairs&#45;&gt;More Legs -->
<g id="edge3" class="edge">
<title>Chairs&#45;&gt;More Legs</title>
<path fill="none" stroke="#356abf" stroke-width="3" d="M201.7038,-177.7505C240.1347,-164.1295 298.452,-143.4601 341.636,-128.1543"/>
</g>
<!-- Rock -->
<g id="node5" class="node">
<title>Rock</title>
<path fill="#356abf" stroke="#ffffff" stroke-width="3" d="M70,-48C70,-48 25,-48 25,-48 19,-48 13,-42 13,-36 13,-36 13,-12 13,-12 13,-6 19,0 25,0 25,0 70,0 70,0 76,0 82,-6 82,-12 82,-12 82,-36 82,-36 82,-42 76,-48 70,-48"/>
<text text-anchor="middle" x="47.5" y="-19.6" font-family="Liberation Sans" font-size="18.00" fill="#ffffff">Rock</text>
</g>
<!-- No Legs&#45;&gt;Rock -->
<g id="edge4" class="edge">
<title>No Legs&#45;&gt;Rock</title>
<path fill="none" stroke="#356abf" stroke-width="3" d="M47.5,-83.7037C47.5,-72.5593 47.5,-59.3794 47.5,-48.2417"/>
</g>
<!-- Bar Stool -->
<g id="node6" class="node">
<title>Bar Stool</title>
<path fill="#356abf" stroke="#ffffff" stroke-width="3" d="M195.5,-48C195.5,-48 117.5,-48 117.5,-48 111.5,-48 105.5,-42 105.5,-36 105.5,-36 105.5,-12 105.5,-12 105.5,-6 111.5,0 117.5,0 117.5,0 195.5,0 195.5,0 201.5,0 207.5,-6 207.5,-12 207.5,-12 207.5,-36 207.5,-36 207.5,-42 201.5,-48 195.5,-48"/>
<text text-anchor="middle" x="156.5" y="-19.6" font-family="Liberation Sans" font-size="18.00" fill="#ffffff">Bar Stool</text>
</g>
<!-- One Leg&#45;&gt;Bar Stool -->
<g id="edge5" class="edge">
<title>One Leg&#45;&gt;Bar Stool</title>
<path fill="none" stroke="#356abf" stroke-width="3" d="M160.0538,-83.7037C159.3904,-72.5593 158.6059,-59.3794 157.943,-48.2417"/>
</g>
<!-- Three&#45;legged Stool -->
<g id="node7" class="node">
<title>Three&#45;legged Stool</title>
<path fill="#356abf" stroke="#ffffff" stroke-width="3" d="M393,-48C393,-48 238,-48 238,-48 232,-48 226,-42 226,-36 226,-36 226,-12 226,-12 226,-6 232,0 238,0 238,0 393,0 393,0 399,0 405,-6 405,-12 405,-12 405,-36 405,-36 405,-42 399,-48 393,-48"/>
<text text-anchor="middle" x="315.5" y="-19.6" font-family="Liberation Sans" font-size="18.00" fill="#ffffff">Three&#45;legged Stool</text>
</g>
<!-- More Legs&#45;&gt;Three&#45;legged Stool -->
<g id="edge6" class="edge">
<title>More Legs&#45;&gt;Three&#45;legged Stool</title>
<path fill="none" stroke="#356abf" stroke-width="3" d="M374.493,-83.7037C363.4812,-72.5593 350.4582,-59.3794 339.4531,-48.2417"/>
</g>
<!-- Desk Chair -->
<g id="node8" class="node">
<title>Desk Chair</title>
<path fill="#356abf" stroke="#ffffff" stroke-width="3" d="M527.5,-48C527.5,-48 435.5,-48 435.5,-48 429.5,-48 423.5,-42 423.5,-36 423.5,-36 423.5,-12 423.5,-12 423.5,-6 429.5,0 435.5,0 435.5,0 527.5,0 527.5,0 533.5,0 539.5,-6 539.5,-12 539.5,-12 539.5,-36 539.5,-36 539.5,-42 533.5,-48 527.5,-48"/>
<text text-anchor="middle" x="481.5" y="-19.6" font-family="Liberation Sans" font-size="18.00" fill="#ffffff">Desk Chair</text>
</g>
<!-- More Legs&#45;&gt;Desk Chair -->
<g id="edge7" class="edge">
<title>More Legs&#45;&gt;Desk Chair</title>
<path fill="none" stroke="#356abf" stroke-width="3" d="M422.507,-83.7037C433.5188,-72.5593 446.5418,-59.3794 457.5469,-48.2417"/>
</g>
<!-- Rolling Chair -->
<g id="node9" class="node">
<title>Rolling Chair</title>
<path fill="#356abf" stroke="#ffffff" stroke-width="3" d="M675,-48C675,-48 570,-48 570,-48 564,-48 558,-42 558,-36 558,-36 558,-12 558,-12 558,-6 564,0 570,0 570,0 675,0 675,0 681,0 687,-6 687,-12 687,-12 687,-36 687,-36 687,-42 681,-48 675,-48"/>
<text text-anchor="middle" x="622.5" y="-19.6" font-family="Liberation Sans" font-size="18.00" fill="#ffffff">Rolling Chair</text>
</g>
<!-- More Legs&#45;&gt;Rolling Chair -->
<g id="edge8" class="edge">
<title>More Legs&#45;&gt;Rolling Chair</title>
<path fill="none" stroke="#356abf" stroke-width="3" d="M455.0247,-86.8033C486.5189,-74.9929 525.8427,-60.2465 558.4699,-48.0113"/>
</g>
</g>
</svg>
