<?xml version="1.0" encoding="UTF-8" standalone="no"?>
<!DOCTYPE svg PUBLIC "-//W3C//DTD SVG 1.1//EN"
 "http://www.w3.org/Graphics/SVG/1.1/DTD/svg11.dtd">
<!-- Generated by graphviz version 2.40.1 (20161225.0304)
 -->
<!-- Title: %3 Pages: 1 -->
<svg width="460pt" height="188pt"
 viewBox="0.00 0.00 460.00 188.00" xmlns="http://www.w3.org/2000/svg" xmlns:xlink="http://www.w3.org/1999/xlink">
<g id="graph0" class="graph" transform="scale(1 1) rotate(0) translate(4 184)">
<title>%3</title>
<polygon fill="#ffffff" stroke="transparent" points="-4,4 -4,-184 456,-184 456,4 -4,4"/>
<!-- Data + Software -->
<g id="node1" class="node">
<title>Data + Software</title>
<polygon fill="#c1b2ff" stroke="#c1b2ff" points="283,-180 173,-180 173,-144 283,-144 283,-180"/>
<text text-anchor="middle" x="228" y="-158.3" font-family="Times,serif" font-size="14.00" fill="#000000">Data + Software</text>
</g>
<!-- Technology in Practice -->
<g id="node2" class="node">
<title>Technology in Practice</title>
<polygon fill="#c1b2ff" stroke="#c1b2ff" points="302.5,-108 153.5,-108 153.5,-72 302.5,-72 302.5,-108"/>
<text text-anchor="middle" x="228" y="-86.3" font-family="Times,serif" font-size="14.00" fill="#000000">Technology in Practice</text>
</g>
<!-- Data + Software&#45;&gt;Technology in Practice -->
<g id="edge1" class="edge">
<title>Data + Software&#45;&gt;Technology in Practice</title>
<path fill="none" stroke="#000000" d="M228,-143.8314C228,-136.131 228,-126.9743 228,-118.4166"/>
<polygon fill="#000000" stroke="#000000" points="231.5001,-118.4132 228,-108.4133 224.5001,-118.4133 231.5001,-118.4132"/>
</g>
<!-- Institutional concerns &amp; Constraints -->
<g id="node3" class="node">
<title>Institutional concerns &amp; Constraints</title>
<polygon fill="#c1b2ff" stroke="#c1b2ff" points="222,-36 0,-36 0,0 222,0 222,-36"/>
<text text-anchor="middle" x="111" y="-14.3" font-family="Times,serif" font-size="14.00" fill="#000000">Institutional concerns &amp; Constraints</text>
</g>
<!-- Technology in Practice&#45;&gt;Institutional concerns &amp; Constraints -->
<g id="edge2" class="edge">
<title>Technology in Practice&#45;&gt;Institutional concerns &amp; Constraints</title>
<path fill="none" stroke="#000000" d="M198.476,-71.8314C183.5109,-62.6221 165.1614,-51.3301 149.1397,-41.4706"/>
<polygon fill="#000000" stroke="#000000" points="150.8655,-38.423 140.5146,-36.1628 147.1968,-44.3847 150.8655,-38.423"/>
</g>
<!-- Disciplinary scholarly community -->
<g id="node4" class="node">
<title>Disciplinary scholarly community</title>
<polygon fill="#c1b2ff" stroke="#c1b2ff" points="452,-36 240,-36 240,0 452,0 452,-36"/>
<text text-anchor="middle" x="346" y="-14.3" font-family="Times,serif" font-size="14.00" fill="#000000">Disciplinary scholarly community</text>
</g>
<!-- Technology in Practice&#45;&gt;Disciplinary scholarly community -->
<g id="edge3" class="edge">
<title>Technology in Practice&#45;&gt;Disciplinary scholarly community</title>
<path fill="none" stroke="#000000" d="M257.7764,-71.8314C272.8693,-62.6221 291.3757,-51.3301 307.5343,-41.4706"/>
<polygon fill="#000000" stroke="#000000" points="309.5198,-44.3593 316.2331,-36.1628 305.8737,-38.3838 309.5198,-44.3593"/>
</g>
</g>
</svg>
