<?xml version="1.0" encoding="UTF-8" standalone="no"?>
<!DOCTYPE svg PUBLIC "-//W3C//DTD SVG 1.1//EN"
 "http://www.w3.org/Graphics/SVG/1.1/DTD/svg11.dtd">
<!-- Generated by graphviz version 2.44.1 (0)
 -->
<!-- Pages: 1 -->
<svg width="560pt" height="188pt"
 viewBox="0.00 0.00 559.50 188.00" xmlns="http://www.w3.org/2000/svg" xmlns:xlink="http://www.w3.org/1999/xlink">
<g id="graph0" class="graph" transform="scale(1 1) rotate(0) translate(4 184)">
<polygon fill="transparent" stroke="transparent" points="-4,4 -4,-184 555.5,-184 555.5,4 -4,4"/>
<!-- Data + Software -->
<g id="node1" class="node">
<title>Data + Software</title>
<path fill="#c1b2ff" stroke="#c1b2ff" d="M337,-180C337,-180 225,-180 225,-180 219,-180 213,-174 213,-168 213,-168 213,-156 213,-156 213,-150 219,-144 225,-144 225,-144 337,-144 337,-144 343,-144 349,-150 349,-156 349,-156 349,-168 349,-168 349,-174 343,-180 337,-180"/>
<text text-anchor="middle" x="281" y="-158.3" font-family="Times,serif" font-size="14.00">Data + Software</text>
</g>
<!-- Technology in Practice -->
<g id="node2" class="node">
<title>Technology in Practice</title>
<path fill="#c1b2ff" stroke="#c1b2ff" d="M358,-108C358,-108 204,-108 204,-108 198,-108 192,-102 192,-96 192,-96 192,-84 192,-84 192,-78 198,-72 204,-72 204,-72 358,-72 358,-72 364,-72 370,-78 370,-84 370,-84 370,-96 370,-96 370,-102 364,-108 358,-108"/>
<text text-anchor="middle" x="281" y="-86.3" font-family="Times,serif" font-size="14.00">Technology in Practice</text>
</g>
<!-- Data + Software&#45;&gt;Technology in Practice -->
<g id="edge1" class="edge">
<title>Data + Software&#45;&gt;Technology in Practice</title>
<path fill="none" stroke="black" d="M281,-143.7C281,-135.98 281,-126.71 281,-118.11"/>
<polygon fill="black" stroke="black" points="284.5,-118.1 281,-108.1 277.5,-118.1 284.5,-118.1"/>
</g>
<!-- Institutional concerns &amp; Constraints -->
<g id="node3" class="node">
<title>Institutional concerns &amp; Constraints</title>
<path fill="#c1b2ff" stroke="#c1b2ff" d="M266,-36C266,-36 12,-36 12,-36 6,-36 0,-30 0,-24 0,-24 0,-12 0,-12 0,-6 6,0 12,0 12,0 266,0 266,0 272,0 278,-6 278,-12 278,-12 278,-24 278,-24 278,-30 272,-36 266,-36"/>
<text text-anchor="middle" x="139" y="-14.3" font-family="Times,serif" font-size="14.00">Institutional concerns &amp; Constraints</text>
</g>
<!-- Technology in Practice&#45;&gt;Institutional concerns &amp; Constraints -->
<g id="edge2" class="edge">
<title>Technology in Practice&#45;&gt;Institutional concerns &amp; Constraints</title>
<path fill="none" stroke="black" d="M246.26,-71.88C227.18,-62.47 203.32,-50.71 182.95,-40.67"/>
<polygon fill="black" stroke="black" points="184.39,-37.47 173.87,-36.19 181.29,-43.75 184.39,-37.47"/>
</g>
<!-- Disciplinary scholarly community -->
<g id="node4" class="node">
<title>Disciplinary scholarly community</title>
<path fill="#c1b2ff" stroke="#c1b2ff" d="M539.5,-36C539.5,-36 308.5,-36 308.5,-36 302.5,-36 296.5,-30 296.5,-24 296.5,-24 296.5,-12 296.5,-12 296.5,-6 302.5,0 308.5,0 308.5,0 539.5,0 539.5,0 545.5,0 551.5,-6 551.5,-12 551.5,-12 551.5,-24 551.5,-24 551.5,-30 545.5,-36 539.5,-36"/>
<text text-anchor="middle" x="424" y="-14.3" font-family="Times,serif" font-size="14.00">Disciplinary scholarly community</text>
</g>
<!-- Technology in Practice&#45;&gt;Disciplinary scholarly community -->
<g id="edge3" class="edge">
<title>Technology in Practice&#45;&gt;Disciplinary scholarly community</title>
<path fill="none" stroke="black" d="M315.98,-71.88C335.2,-62.47 359.23,-50.71 379.74,-40.67"/>
<polygon fill="black" stroke="black" points="381.44,-43.73 388.88,-36.19 378.36,-37.44 381.44,-43.73"/>
</g>
</g>
</svg>
