<?xml version="1.0" encoding="UTF-8" standalone="no"?>
<!DOCTYPE svg PUBLIC "-//W3C//DTD SVG 1.1//EN"
 "http://www.w3.org/Graphics/SVG/1.1/DTD/svg11.dtd">
<!-- Generated by graphviz version 2.40.1 (0)
 -->
<!-- Title: %3 Pages: 1 -->
<svg width="443pt" height="188pt"
 viewBox="0.00 0.00 442.50 188.00" xmlns="http://www.w3.org/2000/svg" xmlns:xlink="http://www.w3.org/1999/xlink">
<g id="graph0" class="graph" transform="scale(1 1) rotate(0) translate(4 184)">
<title>%3</title>
<polygon fill="transparent" stroke="transparent" points="-4,4 -4,-184 438.5,-184 438.5,4 -4,4"/>
<!-- Data + Software -->
<g id="node1" class="node">
<title>Data + Software</title>
<path fill="#c1b2ff" stroke="#c1b2ff" d="M261.5,-180C261.5,-180 178.5,-180 178.5,-180 172.5,-180 166.5,-174 166.5,-168 166.5,-168 166.5,-156 166.5,-156 166.5,-150 172.5,-144 178.5,-144 178.5,-144 261.5,-144 261.5,-144 267.5,-144 273.5,-150 273.5,-156 273.5,-156 273.5,-168 273.5,-168 273.5,-174 267.5,-180 261.5,-180"/>
<text text-anchor="middle" x="220" y="-158.3" font-family="Times,serif" font-size="14.00" fill="#000000">Data + Software</text>
</g>
<!-- Technology in Practice -->
<g id="node2" class="node">
<title>Technology in Practice</title>
<path fill="#c1b2ff" stroke="#c1b2ff" d="M279,-108C279,-108 161,-108 161,-108 155,-108 149,-102 149,-96 149,-96 149,-84 149,-84 149,-78 155,-72 161,-72 161,-72 279,-72 279,-72 285,-72 291,-78 291,-84 291,-84 291,-96 291,-96 291,-102 285,-108 279,-108"/>
<text text-anchor="middle" x="220" y="-86.3" font-family="Times,serif" font-size="14.00" fill="#000000">Technology in Practice</text>
</g>
<!-- Data + Software&#45;&gt;Technology in Practice -->
<g id="edge1" class="edge">
<title>Data + Software&#45;&gt;Technology in Practice</title>
<path fill="none" stroke="#000000" d="M220,-143.8314C220,-136.131 220,-126.9743 220,-118.4166"/>
<polygon fill="#000000" stroke="#000000" points="223.5001,-118.4132 220,-108.4133 216.5001,-118.4133 223.5001,-118.4132"/>
</g>
<!-- Institutional concerns &amp; Constraints -->
<g id="node3" class="node">
<title>Institutional concerns &amp; Constraints</title>
<path fill="#c1b2ff" stroke="#c1b2ff" d="M202,-36C202,-36 12,-36 12,-36 6,-36 0,-30 0,-24 0,-24 0,-12 0,-12 0,-6 6,0 12,0 12,0 202,0 202,0 208,0 214,-6 214,-12 214,-12 214,-24 214,-24 214,-30 208,-36 202,-36"/>
<text text-anchor="middle" x="107" y="-14.3" font-family="Times,serif" font-size="14.00" fill="#000000">Institutional concerns &amp; Constraints</text>
</g>
<!-- Technology in Practice&#45;&gt;Institutional concerns &amp; Constraints -->
<g id="edge2" class="edge">
<title>Technology in Practice&#45;&gt;Institutional concerns &amp; Constraints</title>
<path fill="none" stroke="#000000" d="M191.4853,-71.8314C177.1658,-62.7074 159.6376,-51.539 144.2662,-41.7449"/>
<polygon fill="#000000" stroke="#000000" points="145.8199,-38.5847 135.5055,-36.1628 142.0583,-44.4882 145.8199,-38.5847"/>
</g>
<!-- Disciplinary scholarly community -->
<g id="node4" class="node">
<title>Disciplinary scholarly community</title>
<path fill="#c1b2ff" stroke="#c1b2ff" d="M422.5,-36C422.5,-36 243.5,-36 243.5,-36 237.5,-36 231.5,-30 231.5,-24 231.5,-24 231.5,-12 231.5,-12 231.5,-6 237.5,0 243.5,0 243.5,0 422.5,0 422.5,0 428.5,0 434.5,-6 434.5,-12 434.5,-12 434.5,-24 434.5,-24 434.5,-30 428.5,-36 422.5,-36"/>
<text text-anchor="middle" x="333" y="-14.3" font-family="Times,serif" font-size="14.00" fill="#000000">Disciplinary scholarly community</text>
</g>
<!-- Technology in Practice&#45;&gt;Disciplinary scholarly community -->
<g id="edge3" class="edge">
<title>Technology in Practice&#45;&gt;Disciplinary scholarly community</title>
<path fill="none" stroke="#000000" d="M248.5147,-71.8314C262.8342,-62.7074 280.3624,-51.539 295.7338,-41.7449"/>
<polygon fill="#000000" stroke="#000000" points="297.9417,-44.4882 304.4945,-36.1628 294.1801,-38.5847 297.9417,-44.4882"/>
</g>
</g>
</svg>
