<?xml version="1.0" encoding="UTF-8" standalone="no"?>
<!DOCTYPE svg PUBLIC "-//W3C//DTD SVG 1.1//EN"
 "http://www.w3.org/Graphics/SVG/1.1/DTD/svg11.dtd">
<!-- Generated by graphviz version 2.40.1 (0)
 -->
<!-- Title: %3 Pages: 1 -->
<svg width="656pt" height="408pt"
 viewBox="0.00 0.00 656.00 408.00" xmlns="http://www.w3.org/2000/svg" xmlns:xlink="http://www.w3.org/1999/xlink">
<g id="graph0" class="graph" transform="scale(1 1) rotate(0) translate(4 404)">
<title>%3</title>
<polygon fill="transparent" stroke="transparent" points="-4,4 -4,-404 652,-404 652,4 -4,4"/>
<!-- D -->
<g id="node1" class="node">
<title>D</title>
<path fill="#356abf" stroke="#ffffff" stroke-width="3" d="M438.5,-400C438.5,-400 209.5,-400 209.5,-400 203.5,-400 197.5,-394 197.5,-388 197.5,-388 197.5,-312 197.5,-312 197.5,-306 203.5,-300 209.5,-300 209.5,-300 438.5,-300 438.5,-300 444.5,-300 450.5,-306 450.5,-312 450.5,-312 450.5,-388 450.5,-388 450.5,-394 444.5,-400 438.5,-400"/>
<text text-anchor="middle" x="324" y="-344" font-family="Liberation Sans" font-size="25.00" fill="#ffffff">Data + Software</text>
</g>
<!-- T -->
<g id="node2" class="node">
<title>T</title>
<path fill="#356abf" stroke="#ffffff" stroke-width="3" d="M474.5,-264C474.5,-264 173.5,-264 173.5,-264 167.5,-264 161.5,-258 161.5,-252 161.5,-252 161.5,-176 161.5,-176 161.5,-170 167.5,-164 173.5,-164 173.5,-164 474.5,-164 474.5,-164 480.5,-164 486.5,-170 486.5,-176 486.5,-176 486.5,-252 486.5,-252 486.5,-258 480.5,-264 474.5,-264"/>
<text text-anchor="middle" x="324" y="-208" font-family="Liberation Sans" font-size="25.00" fill="#ffffff">Technology in Practice</text>
</g>
<!-- D&#45;&gt;T -->
<g id="edge1" class="edge">
<title>D&#45;&gt;T</title>
<path fill="none" stroke="#000000" d="M324,-299.745C324,-291.4607 324,-282.7986 324,-274.299"/>
<polygon fill="#000000" stroke="#000000" points="327.5001,-274.0484 324,-264.0484 320.5001,-274.0485 327.5001,-274.0484"/>
</g>
<!-- Institutional concerns \n&amp; Constraints -->
<g id="node3" class="node">
<title>Institutional concerns \n&amp; Constraints</title>
<path fill="#356abf" stroke="#ffffff" stroke-width="3" d="M304,-128C304,-128 12,-128 12,-128 6,-128 0,-122 0,-116 0,-116 0,-12 0,-12 0,-6 6,0 12,0 12,0 304,0 304,0 310,0 316,-6 316,-12 316,-12 316,-116 316,-116 316,-122 310,-128 304,-128"/>
<text text-anchor="middle" x="158" y="-72" font-family="Liberation Sans" font-size="25.00" fill="#ffffff">Institutional concerns </text>
<text text-anchor="middle" x="158" y="-44" font-family="Liberation Sans" font-size="25.00" fill="#ffffff">&amp; Constraints</text>
</g>
<!-- T&#45;&gt;Institutional concerns \n&amp; Constraints -->
<g id="edge2" class="edge">
<title>T&#45;&gt;Institutional concerns \n&amp; Constraints</title>
<path fill="none" stroke="#000000" d="M268.2626,-163.6349C258.0078,-154.3685 247.1284,-144.5377 236.3537,-134.8015"/>
<polygon fill="#000000" stroke="#000000" points="238.6861,-132.1919 228.92,-128.0843 233.993,-137.3857 238.6861,-132.1919"/>
</g>
<!-- Disciplinary scholarly \ncommunity -->
<g id="node4" class="node">
<title>Disciplinary scholarly \ncommunity</title>
<path fill="#356abf" stroke="#ffffff" stroke-width="3" d="M636,-128C636,-128 346,-128 346,-128 340,-128 334,-122 334,-116 334,-116 334,-12 334,-12 334,-6 340,0 346,0 346,0 636,0 636,0 642,0 648,-6 648,-12 648,-12 648,-116 648,-116 648,-122 642,-128 636,-128"/>
<text text-anchor="middle" x="491" y="-72" font-family="Liberation Sans" font-size="25.00" fill="#ffffff">Disciplinary scholarly </text>
<text text-anchor="middle" x="491" y="-44" font-family="Liberation Sans" font-size="25.00" fill="#ffffff">community</text>
</g>
<!-- T&#45;&gt;Disciplinary scholarly \ncommunity -->
<g id="edge3" class="edge">
<title>T&#45;&gt;Disciplinary scholarly \ncommunity</title>
<path fill="none" stroke="#000000" d="M380.0732,-163.6349C390.3898,-154.3685 401.3347,-144.5377 412.1743,-134.8015"/>
<polygon fill="#000000" stroke="#000000" points="414.552,-137.3705 419.6528,-128.0843 409.8744,-132.1627 414.552,-137.3705"/>
</g>
</g>
</svg>
