<?xml version="1.0" encoding="UTF-8" standalone="no"?>
<!DOCTYPE svg PUBLIC "-//W3C//DTD SVG 1.1//EN"
 "http://www.w3.org/Graphics/SVG/1.1/DTD/svg11.dtd">
<!-- Generated by graphviz version 2.40.1 (20161225.0304)
 -->
<!-- Title: %3 Pages: 1 -->
<svg width="646pt" height="408pt"
 viewBox="0.00 0.00 646.00 408.00" xmlns="http://www.w3.org/2000/svg" xmlns:xlink="http://www.w3.org/1999/xlink">
<g id="graph0" class="graph" transform="scale(1 1) rotate(0) translate(4 404)">
<title>%3</title>
<polygon fill="transparent" stroke="transparent" points="-4,4 -4,-404 642,-404 642,4 -4,4"/>
<!-- D -->
<g id="node1" class="node">
<title>D</title>
<path fill="#356abf" stroke="#ffffff" stroke-width="3" d="M431.5,-400C431.5,-400 206.5,-400 206.5,-400 200.5,-400 194.5,-394 194.5,-388 194.5,-388 194.5,-312 194.5,-312 194.5,-306 200.5,-300 206.5,-300 206.5,-300 431.5,-300 431.5,-300 437.5,-300 443.5,-306 443.5,-312 443.5,-312 443.5,-388 443.5,-388 443.5,-394 437.5,-400 431.5,-400"/>
<text text-anchor="middle" x="319" y="-344" font-family="Liberation Sans" font-size="25.00" fill="#ffffff">Data + Software</text>
</g>
<!-- T -->
<g id="node2" class="node">
<title>T</title>
<path fill="#356abf" stroke="#ffffff" stroke-width="3" d="M466,-264C466,-264 172,-264 172,-264 166,-264 160,-258 160,-252 160,-252 160,-176 160,-176 160,-170 166,-164 172,-164 172,-164 466,-164 466,-164 472,-164 478,-170 478,-176 478,-176 478,-252 478,-252 478,-258 472,-264 466,-264"/>
<text text-anchor="middle" x="319" y="-208" font-family="Liberation Sans" font-size="25.00" fill="#ffffff">Technology in Practice</text>
</g>
<!-- D&#45;&gt;T -->
<g id="edge1" class="edge">
<title>D&#45;&gt;T</title>
<path fill="none" stroke="#000000" d="M319,-299.745C319,-291.4607 319,-282.7986 319,-274.299"/>
<polygon fill="#000000" stroke="#000000" points="322.5001,-274.0484 319,-264.0484 315.5001,-274.0485 322.5001,-274.0484"/>
</g>
<!-- Institutional concerns \n&amp; Constraints -->
<g id="node3" class="node">
<title>Institutional concerns \n&amp; Constraints</title>
<path fill="#356abf" stroke="#ffffff" stroke-width="3" d="M298,-128C298,-128 12,-128 12,-128 6,-128 0,-122 0,-116 0,-116 0,-12 0,-12 0,-6 6,0 12,0 12,0 298,0 298,0 304,0 310,-6 310,-12 310,-12 310,-116 310,-116 310,-122 304,-128 298,-128"/>
<text text-anchor="middle" x="155" y="-72" font-family="Liberation Sans" font-size="25.00" fill="#ffffff">Institutional concerns </text>
<text text-anchor="middle" x="155" y="-44" font-family="Liberation Sans" font-size="25.00" fill="#ffffff">&amp; Constraints</text>
</g>
<!-- T&#45;&gt;Institutional concerns \n&amp; Constraints -->
<g id="edge2" class="edge">
<title>T&#45;&gt;Institutional concerns \n&amp; Constraints</title>
<path fill="none" stroke="#000000" d="M263.9341,-163.6349C253.9003,-154.4576 243.2612,-144.7267 232.7167,-135.0824"/>
<polygon fill="#000000" stroke="#000000" points="234.8067,-132.2508 225.0655,-128.0843 230.0823,-137.4161 234.8067,-132.2508"/>
</g>
<!-- Disciplinary scholarly \ncommunity -->
<g id="node4" class="node">
<title>Disciplinary scholarly \ncommunity</title>
<path fill="#356abf" stroke="#ffffff" stroke-width="3" d="M626,-128C626,-128 340,-128 340,-128 334,-128 328,-122 328,-116 328,-116 328,-12 328,-12 328,-6 334,0 340,0 340,0 626,0 626,0 632,0 638,-6 638,-12 638,-12 638,-116 638,-116 638,-122 632,-128 626,-128"/>
<text text-anchor="middle" x="483" y="-72" font-family="Liberation Sans" font-size="25.00" fill="#ffffff">Disciplinary scholarly </text>
<text text-anchor="middle" x="483" y="-44" font-family="Liberation Sans" font-size="25.00" fill="#ffffff">community</text>
</g>
<!-- T&#45;&gt;Disciplinary scholarly \ncommunity -->
<g id="edge3" class="edge">
<title>T&#45;&gt;Disciplinary scholarly \ncommunity</title>
<path fill="none" stroke="#000000" d="M374.0659,-163.6349C384.0997,-154.4576 394.7388,-144.7267 405.2833,-135.0824"/>
<polygon fill="#000000" stroke="#000000" points="407.9177,-137.4161 412.9345,-128.0843 403.1933,-132.2508 407.9177,-137.4161"/>
</g>
</g>
</svg>
